<svg width="32" height="32" viewBox="0 0 32 32" fill="none" xmlns="http://www.w3.org/2000/svg">
<path id="Vector" d="M11.7892 26.9474C11.2895 26.9474 10.8011 27.0955 10.3856 27.3731C9.97017 27.6507 9.64636 28.0453 9.45515 28.5069C9.26394 28.9685 9.21391 29.4765 9.31139 29.9665C9.40887 30.4566 9.64948 30.9067 10.0028 31.2601C10.3561 31.6134 10.8062 31.854 11.2963 31.9515C11.7864 32.0489 12.2943 31.9989 12.7559 31.8077C13.2176 31.6165 13.6121 31.2927 13.8897 30.8772C14.1673 30.4618 14.3155 29.9733 14.3155 29.4737C14.3155 28.8037 14.0493 28.1611 13.5755 27.6873C13.1018 27.2135 12.4592 26.9474 11.7892 26.9474ZM29.4734 21.8947H9.26285C8.81617 21.8947 8.38778 21.7173 8.07193 21.4014C7.75608 21.0856 7.57864 20.6572 7.57864 20.2105C7.57864 19.7638 7.75608 19.3355 8.07193 19.0196C8.38778 18.7038 8.81617 18.5263 9.26285 18.5263H23.5638C24.661 18.5228 25.7274 18.1638 26.6033 17.5031C27.4793 16.8425 28.1175 15.9158 28.4224 14.8618L31.0926 5.51562C31.1643 5.26496 31.1767 5.0011 31.1291 4.7448C31.0814 4.4885 30.9749 4.24676 30.8179 4.03862C30.661 3.83048 30.4578 3.66161 30.2245 3.54531C29.9912 3.42902 29.7341 3.36846 29.4734 3.36842H8.82339C8.47473 2.38713 7.83202 1.5372 6.98281 0.934423C6.1336 0.331651 5.1192 0.00535705 4.07782 0H2.52601C2.07933 0 1.65094 0.177443 1.33509 0.493294C1.01924 0.809144 0.841797 1.23753 0.841797 1.68421C0.841797 2.13089 1.01924 2.55928 1.33509 2.87513C1.65094 3.19098 2.07933 3.36842 2.52601 3.36842H4.07782C4.44343 3.3697 4.7988 3.48937 5.0907 3.70952C5.3826 3.92968 5.59534 4.23846 5.69706 4.58964L5.95898 5.5071L5.95939 5.51562L8.72256 15.1867C7.43676 15.325 6.25295 15.9511 5.41488 16.936C4.5768 17.9209 4.14826 19.1896 4.2175 20.481C4.28675 21.7723 4.84849 22.988 5.78708 23.8776C6.72567 24.7672 7.96964 25.2631 9.26285 25.2632H29.4734C29.9201 25.2632 30.3484 25.0857 30.6643 24.7699C30.9801 24.454 31.1576 24.0256 31.1576 23.5789C31.1576 23.1323 30.9801 22.7039 30.6643 22.388C30.3484 22.0722 29.9201 21.8947 29.4734 21.8947ZM27.2407 6.73684L25.1839 13.9358C25.0823 14.2873 24.8695 14.5964 24.5774 14.8167C24.2853 15.037 23.9297 15.1567 23.5638 15.1579H12.2176L11.7882 13.6552L9.81261 6.73684H27.2407ZM25.2628 26.9474C24.7632 26.9474 24.2748 27.0955 23.8593 27.3731C23.4439 27.6507 23.12 28.0453 22.9288 28.5069C22.7376 28.9685 22.6876 29.4765 22.7851 29.9665C22.8826 30.4566 23.1232 30.9067 23.4765 31.2601C23.8298 31.6134 24.2799 31.854 24.77 31.9515C25.26 32.0489 25.768 31.9989 26.2296 31.8077C26.6913 31.6165 27.0858 31.2927 27.3634 30.8772C27.641 30.4618 27.7892 29.9733 27.7892 29.4737C27.7892 28.8037 27.523 28.1611 27.0492 27.6873C26.5754 27.2135 25.9329 26.9474 25.2628 26.9474Z" fill="#B4B5BF"/>
</svg>
