<svg width="32" height="32" viewBox="0 0 32 32" fill="none" xmlns="http://www.w3.org/2000/svg">
<g id="Outline 24px / credit-card">
<path id="Vector" fill-rule="evenodd" clip-rule="evenodd" d="M0 8C0 5.79086 1.79086 4 4 4H28C30.2091 4 32 5.79086 32 8V24C32 26.2091 30.2091 28 28 28H4C1.79086 28 0 26.2091 0 24V8ZM2.66667 8C2.66667 7.26362 3.26362 6.66667 4 6.66667H28C28.7364 6.66667 29.3333 7.26362 29.3333 8V12H2.66667V8ZM29.3333 14.6667V24C29.3333 24.7364 28.7364 25.3333 28 25.3333H4C3.26362 25.3333 2.66667 24.7364 2.66667 24V14.6667H29.3333Z" fill="black" fill-opacity="0.25"/>
</g>
</svg>
