<svg width="27" height="26" viewBox="0 0 27 26" fill="none" xmlns="http://www.w3.org/2000/svg">
<g id="Reel">
<path id="Vector" d="M20.0003 2.16663H7.00033C4.60709 2.16663 2.66699 4.10673 2.66699 6.49996V19.5C2.66699 21.8932 4.60709 23.8333 7.00033 23.8333H20.0003C22.3936 23.8333 24.3337 21.8932 24.3337 19.5V6.49996C24.3337 4.10673 22.3936 2.16663 20.0003 2.16663Z" stroke="white" stroke-width="2" stroke-linejoin="round"/>
<path id="Vector_2" d="M10.25 12.793C10.25 12.309 10.6424 11.9166 11.1264 11.9166C11.2625 11.9166 11.3967 11.9483 11.5184 12.0091L16.2655 14.3827C16.5625 14.5311 16.75 14.8347 16.75 15.1666C16.75 15.4986 16.5625 15.8021 16.2655 15.9505L11.5184 18.3241C11.3967 18.385 11.2625 18.4166 11.1264 18.4166C10.6424 18.4166 10.25 18.0242 10.25 17.5402V12.793Z" stroke="white" stroke-width="2" stroke-linejoin="round"/>
<path id="Vector_3" d="M2.66699 8.66663H24.3337M9.16699 8.66663L11.3337 2.16663M15.667 8.66663L17.8337 2.16663" stroke="white" stroke-width="2" stroke-linecap="round" stroke-linejoin="round"/>
</g>
</svg>
