<svg width="18" height="17" viewBox="0 0 18 17" fill="none" xmlns="http://www.w3.org/2000/svg">
<g id="Group 2">
<path id="Polygon 55" d="M4.95679 3.99919C6.2463 1.76568 6.89106 0.648928 7.74201 0.291223C8.4218 0.0054649 9.18802 0.00546489 9.86781 0.291222C10.7188 0.648928 11.3635 1.76568 12.653 3.99919L15.778 9.41176C17.0675 11.6453 17.7123 12.762 17.5966 13.6778C17.5041 14.4094 17.121 15.073 16.5337 15.5188C15.7984 16.0769 14.5089 16.0769 11.9299 16.0769H5.67996C3.10092 16.0769 1.81141 16.0769 1.07615 15.5188C0.488783 15.073 0.105674 14.4094 0.013252 13.6778C-0.10244 12.762 0.542319 11.6453 1.83184 9.41176L4.95679 3.99919Z" fill="#FF424C"/>
<rect id="Rectangle 964" x="7.9248" y="4.37378" width="1.76035" height="6.48815" rx="0.84305" fill="white"/>
<rect id="Rectangle 965" x="7.9248" y="12.1187" width="1.76035" height="1.76035" rx="0.84305" fill="white"/>
</g>
</svg>
