<svg width="8" height="8" viewBox="0 0 8 8" fill="none" xmlns="http://www.w3.org/2000/svg">
<path d="M7.80019 6.81652C8.07685 7.09318 8.07685 7.52353 7.80019 7.80019C7.66186 7.93852 7.4928 8 7.30836 8C7.12392 8 6.95485 7.93852 6.81652 7.80019L4.00384 4.98751L1.19116 7.80019C1.05283 7.93852 0.883766 8 0.699328 8C0.51489 8 0.345821 7.93852 0.207493 7.80019C-0.0691643 7.52353 -0.0691643 7.09318 0.207493 6.81652L3.02017 4.00384L0.207493 1.19116C-0.0691643 0.914506 -0.0691643 0.48415 0.207493 0.207493C0.48415 -0.0691643 0.914506 -0.0691643 1.19116 0.207493L4.00384 3.02017L6.81652 0.207493C7.09318 -0.0691643 7.52353 -0.0691643 7.80019 0.207493C8.07685 0.48415 8.07685 0.914506 7.80019 1.19116L4.98751 4.00384L7.80019 6.81652Z" fill="white"/>
</svg>
