<svg width="20" height="20" viewBox="0 0 20 20" fill="none" xmlns="http://www.w3.org/2000/svg">
<g clip-path="url(#clip0_3454_1150)">
<path d="M0 14.9132V14.9141C0.0119695 15.358 0.0156614 15.8045 0.0905483 16.2458C0.169904 16.7126 0.283342 17.1678 0.499764 17.5914C0.792356 18.1649 1.19419 18.6492 1.70141 19.0447C2.06559 19.3288 2.46342 19.5542 2.9038 19.6965C3.54596 19.9036 4.20843 19.983 4.88059 19.9869C5.29995 19.9895 5.71904 20 6.13855 19.9983C9.18513 19.9855 12.2318 20.0203 15.2784 19.9795C15.6827 19.974 16.0804 19.9247 16.4772 19.8521C17.2377 19.7129 17.9098 19.3884 18.4848 18.8754C19.155 18.2777 19.6072 17.5461 19.8113 16.6632C19.9448 16.0861 19.9783 15.5006 19.984 14.9131V14.7959C19.984 14.7504 19.9667 4.81256 19.9651 4.68121C19.9606 4.32038 19.934 3.96227 19.8664 3.60722C19.7841 3.17457 19.6679 2.753 19.4607 2.36158C19.2419 1.94805 18.9679 1.57622 18.629 1.2513C18.1098 0.753477 17.5108 0.401427 16.8133 0.2152C16.1833 0.0470449 15.5407 0.00981518 14.8933 0.0103981C14.8923 0.0102427 14.8898 0.00367496 14.8897 0.000488281H5.09118C5.09099 0.00383041 5.09087 0.00717257 5.09064 0.0103981C4.72324 0.0171212 4.35529 0.0143619 3.98976 0.0596749C3.58933 0.109457 3.19274 0.184422 2.81372 0.324402C2.21672 0.545216 1.69803 0.889144 1.25497 1.3483C0.752988 1.8685 0.399151 2.47012 0.211409 3.17069C0.0439141 3.79574 0.00746173 4.43323 0.00656791 5.07523" fill="#FFFC00"/>
<path d="M10.0823 16.8742C10.0408 16.8742 10.0012 16.8727 9.97106 16.8713C9.94716 16.8733 9.92248 16.8742 9.89777 16.8742C9.02582 16.8742 8.44281 16.462 7.92832 16.098C7.55956 15.8376 7.21179 15.5916 6.80436 15.5239C6.60426 15.4907 6.40521 15.4738 6.21288 15.4738C5.86635 15.4738 5.59249 15.5276 5.39254 15.5667C5.26951 15.5907 5.16341 15.6113 5.08141 15.6113C4.99553 15.6113 4.89118 15.5923 4.8477 15.4438C4.81323 15.3266 4.78851 15.2132 4.76465 15.1039C4.70496 14.8308 4.66167 14.6641 4.55942 14.6483C3.46581 14.4796 2.81965 14.231 2.69094 13.93C2.67786 13.8999 2.67018 13.8678 2.66824 13.835C2.66582 13.7918 2.67947 13.7492 2.70656 13.7154C2.73366 13.6816 2.77229 13.659 2.81503 13.652C3.68351 13.5089 4.45574 13.0499 5.11037 12.2872C5.61747 11.6967 5.8665 11.1325 5.89324 11.0702C5.89443 11.0673 5.89574 11.0645 5.89716 11.0617C6.02335 10.8057 6.04845 10.5845 5.97201 10.4043C5.8311 10.072 5.36441 9.92397 5.05565 9.826C4.97886 9.80171 4.90622 9.77871 4.84836 9.75574C4.57466 9.64763 4.12452 9.4192 4.18448 9.10391C4.22816 8.874 4.53226 8.71389 4.77802 8.71389C4.84626 8.71389 4.90673 8.72586 4.95764 8.74976C5.23535 8.87987 5.48519 8.94582 5.70006 8.94582C5.96727 8.94582 6.09633 8.84408 6.12754 8.81517C6.11945 8.66924 6.11065 8.52335 6.10115 8.3775C6.03843 7.37972 5.9602 6.13801 6.27782 5.42594C7.22846 3.29448 9.2445 3.12874 9.83955 3.12874C9.93777 3.12791 10.036 3.12699 10.1342 3.12598C10.7309 3.12598 12.7511 3.29192 13.7023 5.42466C14.02 6.13719 13.9417 7.37996 13.8787 8.37879L13.8758 8.42659C13.8672 8.56221 13.8592 8.69057 13.8525 8.81501C13.8819 8.84206 14 8.93533 14.2402 8.94477C14.4451 8.93692 14.6805 8.87128 14.9397 8.74992C15.0198 8.7123 15.1085 8.70449 15.1688 8.70449C15.2598 8.70449 15.3525 8.72221 15.4297 8.75443L15.4338 8.75602C15.6538 8.83409 15.7978 8.99012 15.8009 9.15404C15.8037 9.30685 15.6901 9.53524 15.1316 9.75582C15.0744 9.77848 15.0014 9.80164 14.9243 9.82608C14.6153 9.92417 14.149 10.0722 14.0081 10.4043C13.9315 10.5844 13.9567 10.8056 14.0829 11.0615C14.0843 11.0643 14.0855 11.0671 14.0869 11.0701C14.1257 11.1612 15.0664 13.306 17.1651 13.6518C17.2078 13.6588 17.2464 13.6814 17.2735 13.7152C17.3006 13.749 17.3143 13.7916 17.3119 13.8348C17.3099 13.8679 17.302 13.9003 17.2887 13.9306C17.1609 14.23 16.5147 14.4782 15.4208 14.6472C15.3181 14.663 15.2749 14.829 15.2157 15.1006C15.1913 15.2128 15.1664 15.3228 15.1323 15.4384C15.1005 15.5471 15.0297 15.6002 14.916 15.6002H14.8989C14.8248 15.6002 14.7199 15.5867 14.5877 15.5609C14.3564 15.5159 14.0971 15.474 13.7673 15.474C13.575 15.474 13.376 15.4908 13.1757 15.524C12.7687 15.5918 12.421 15.8373 12.0529 16.0975C11.5373 16.462 10.9541 16.8742 10.0823 16.8742Z" fill="white"/>
<path d="M10.1342 3.30143C10.6959 3.30143 12.6303 3.45233 13.5419 5.49604C13.8421 6.16901 13.7651 7.38807 13.7034 8.36735C13.6938 8.52276 13.6842 8.67339 13.6765 8.81722L13.6732 8.87905L13.7145 8.9251C13.7311 8.9436 13.8872 9.10666 14.2342 9.12007L14.2398 9.12038L14.2456 9.12026C14.4751 9.11152 14.7335 9.04025 15.0142 8.90878C15.0555 8.88942 15.1105 8.87998 15.1688 8.87998C15.2351 8.87998 15.3056 8.89245 15.3637 8.91694L15.3725 8.92043C15.5197 8.972 15.6237 9.06924 15.6253 9.15722C15.6262 9.20696 15.589 9.38616 15.0673 9.59224C15.0163 9.61237 14.9492 9.63378 14.8714 9.65831C14.5319 9.76611 14.019 9.92878 13.8464 10.3356C13.7492 10.5647 13.7758 10.8351 13.9254 11.1391C13.987 11.2828 14.956 13.4656 17.1366 13.8249C17.1359 13.837 17.1328 13.8489 17.1277 13.8599C17.0908 13.947 16.8558 14.2477 15.394 14.4733C15.1653 14.5083 15.1092 14.7647 15.0442 15.0628C15.0208 15.1695 14.9969 15.2772 14.9641 15.3885C14.9541 15.4221 14.9522 15.424 14.9162 15.424H14.899C14.8342 15.424 14.7358 15.4106 14.6217 15.3882C14.414 15.3477 14.1302 15.2981 13.7675 15.2981C13.565 15.2981 13.3564 15.3157 13.1472 15.3506C12.6998 15.425 12.336 15.6823 11.9508 15.9547C11.4333 16.3203 10.8986 16.6986 10.0826 16.6986C10.047 16.6986 10.0122 16.6974 9.97735 16.6957L9.96818 16.6953L9.95897 16.696C9.93895 16.6977 9.91878 16.6986 9.89819 16.6986C9.08236 16.6986 8.54735 16.3204 8.03017 15.9547C7.64482 15.6823 7.28084 15.425 6.83357 15.3506C6.6245 15.3158 6.41573 15.2981 6.21338 15.2981C5.85068 15.2981 5.56656 15.3536 5.35927 15.3941C5.24521 15.4164 5.14646 15.4356 5.08184 15.4356C5.02891 15.4356 5.0279 15.4324 5.0167 15.3942C4.9839 15.2829 4.95993 15.1726 4.93657 15.066C4.87144 14.7676 4.81536 14.5098 4.58673 14.4747C3.12502 14.249 2.89006 13.9477 2.85299 13.8609C2.84795 13.8496 2.84491 13.8376 2.84401 13.8252C5.02455 13.4662 5.99342 11.2834 6.05517 11.1391C6.20506 10.8353 6.23164 10.565 6.13414 10.3356C5.96151 9.92902 5.44869 9.76611 5.10943 9.6585C5.03143 9.63382 4.96428 9.61237 4.91325 9.59224C4.47271 9.41818 4.3372 9.24283 4.35733 9.13658C4.38069 9.01405 4.59311 8.88946 4.77848 8.88946C4.82014 8.88946 4.85667 8.89618 4.88368 8.90881C5.18474 9.04992 5.45957 9.12147 5.70063 9.12147C6.07958 9.12147 6.24824 8.94515 6.26635 8.92502L6.30742 8.87909L6.30412 8.81757C6.29646 8.67382 6.28702 8.52323 6.27707 8.36813C6.21555 7.38861 6.13861 6.17037 6.43866 5.49736C7.34686 3.46115 9.27181 3.30419 9.84005 3.30419C9.85404 3.30419 10.1011 3.30166 10.1011 3.30166C10.1112 3.30158 10.1224 3.30143 10.1342 3.30143ZM10.1342 2.9502H10.1335C10.1206 2.9502 10.1084 2.9502 10.0968 2.95035L9.83908 2.95292C9.50619 2.95292 8.84013 2.99994 8.12469 3.31573C7.71562 3.49617 7.34768 3.74014 7.03111 4.04089C6.65368 4.39924 6.34621 4.84106 6.11739 5.35427C5.78228 6.10571 5.86183 7.3714 5.92572 8.38853L5.92596 8.39012C5.9328 8.49905 5.93998 8.6128 5.94655 8.72364C5.89739 8.74622 5.81769 8.77004 5.70021 8.77004C5.51118 8.77004 5.2864 8.70961 5.03229 8.59054C4.95752 8.55572 4.87218 8.53811 4.77801 8.53811C4.62672 8.53811 4.46723 8.58265 4.32889 8.66399C4.15482 8.76619 4.04236 8.91064 4.01181 9.07079C3.99168 9.17673 3.99265 9.38612 4.22524 9.59846C4.35317 9.71535 4.54111 9.82316 4.78369 9.91903C4.84734 9.9441 4.92289 9.96803 5.00291 9.99341C5.28058 10.0817 5.70083 10.215 5.81042 10.4729C5.86595 10.6037 5.84205 10.7758 5.73957 10.9838C5.73689 10.9894 5.73421 10.995 5.73176 11.0008C5.70615 11.0606 5.46723 11.6018 4.97714 12.1726C4.69866 12.4972 4.39192 12.7684 4.06595 12.9791C3.66808 13.2362 3.23757 13.4043 2.7865 13.4786C2.70097 13.4927 2.62366 13.5378 2.56944 13.6055C2.51521 13.6731 2.48789 13.7583 2.49274 13.8449C2.49577 13.8965 2.50789 13.9481 2.52892 13.9979L2.52942 13.9988C2.60105 14.1664 2.7671 14.3087 3.03708 14.4342C3.36698 14.5874 3.86037 14.7163 4.50341 14.8172C4.5359 14.879 4.56963 15.0343 4.59299 15.1406C4.61743 15.2536 4.64293 15.3698 4.67926 15.4932C4.71848 15.627 4.82018 15.7868 5.08145 15.7868C5.18047 15.7868 5.29433 15.7644 5.42619 15.7389C5.6193 15.701 5.88336 15.6493 6.21295 15.6493C6.39568 15.6493 6.58505 15.6654 6.77567 15.6971C7.14311 15.7582 7.45987 15.982 7.82638 16.2411C8.36283 16.6203 8.97005 17.0496 9.8978 17.0496C9.9231 17.0496 9.94847 17.0488 9.97354 17.047C10.0042 17.0484 10.0422 17.0496 10.0823 17.0496C11.0103 17.0496 11.6174 16.6202 12.1533 16.2413L12.1541 16.2405C12.5207 15.9817 12.8371 15.7582 13.2044 15.6971C13.395 15.6654 13.5843 15.6493 13.7671 15.6493C14.082 15.6493 14.3313 15.6894 14.5539 15.7329C14.6992 15.7615 14.812 15.7752 14.8987 15.7752L14.9071 15.7754H14.9159C15.107 15.7754 15.2474 15.6705 15.301 15.4869C15.3366 15.3661 15.362 15.2526 15.3871 15.1377C15.4089 15.0381 15.4438 14.8784 15.4763 14.8159C16.1198 14.7149 16.613 14.5862 16.9429 14.433C17.2123 14.3081 17.3781 14.1659 17.4502 13.9991C17.4718 13.9491 17.4844 13.8972 17.4873 13.8445C17.4921 13.7579 17.4648 13.6726 17.4106 13.605C17.3563 13.5374 17.279 13.4923 17.1935 13.4782C15.1888 13.1478 14.2857 11.088 14.2483 11.0005C14.2459 10.9947 14.2432 10.989 14.2403 10.9835C14.1379 10.7754 14.1142 10.6035 14.1698 10.4725C14.2791 10.2148 14.6991 10.0815 14.977 9.99326C15.0574 9.96792 15.1332 9.94382 15.1964 9.91887C15.4699 9.81084 15.6655 9.69363 15.7944 9.56053C15.9485 9.40186 15.9785 9.24983 15.9766 9.15034C15.9719 8.90963 15.7879 8.69573 15.4952 8.591C15.3963 8.55012 15.2836 8.52855 15.1688 8.52855C15.0906 8.52855 14.9749 8.53928 14.8654 8.59042C14.6308 8.70017 14.4207 8.76017 14.2404 8.76872C14.1445 8.76386 14.0772 8.74307 14.0336 8.72321C14.0391 8.62932 14.0452 8.53286 14.0514 8.43229L14.054 8.38923C14.1183 7.37144 14.1981 6.10477 13.8628 5.35279C13.6331 4.83776 13.3245 4.39481 12.9455 4.03569C12.6277 3.73474 12.2585 3.4908 11.848 3.31048C11.1336 2.99702 10.4676 2.9502 10.1342 2.9502Z" fill="#020202"/>
</g>
<defs>
<clipPath id="clip0_3454_1150">
<rect width="19.984" height="20" fill="white"/>
</clipPath>
</defs>
</svg>
