<svg width="12" height="13" viewBox="0 0 12 13" fill="none" xmlns="http://www.w3.org/2000/svg">
<g clip-path="url(#clip0_3454_1132)">
<mask id="mask0_3454_1132" style="mask-type:luminance" maskUnits="userSpaceOnUse" x="0" y="0" width="12" height="13">
<path d="M12 0.5H0V12.5H12V0.5Z" fill="white"/>
</mask>
<g mask="url(#mask0_3454_1132)">
<path d="M6.67779 1.23476C6.32769 0.807162 5.67379 0.807164 5.32374 1.23476L4.8278 1.84049C4.79381 1.882 4.73711 1.8972 4.68692 1.87824L3.95457 1.60162C3.4376 1.40636 2.8713 1.7333 2.78192 2.27866L2.6553 3.05119C2.64662 3.10414 2.60512 3.14565 2.55216 3.15433L1.77963 3.28094C1.23428 3.37033 0.907328 3.93662 1.1026 4.4536L1.37921 5.18594C1.39817 5.23614 1.38298 5.29284 1.34146 5.32683L0.735738 5.82274C0.308139 6.17284 0.30814 6.82674 0.735738 7.17684L1.34146 7.67274C1.38298 7.70674 1.39817 7.76344 1.37921 7.81364L1.1026 8.54599C0.907333 9.06294 1.23428 9.62924 1.77963 9.71864L2.55216 9.84524C2.60512 9.85394 2.64662 9.89544 2.6553 9.94839L2.78192 10.7209C2.8713 11.2662 3.43759 11.5932 3.95457 11.3979L4.68692 11.1213C4.73711 11.1024 4.79381 11.1175 4.8278 11.1591L5.32374 11.7648C5.67379 12.1924 6.32769 12.1924 6.67779 11.7648L7.17369 11.1591C7.20769 11.1175 7.26439 11.1024 7.31459 11.1213L8.04694 11.3979C8.56394 11.5932 9.13024 11.2662 9.21959 10.7209L9.34624 9.94839C9.35489 9.89544 9.39639 9.85394 9.44934 9.84524L10.2219 9.71864C10.7672 9.62924 11.0942 9.06294 10.8989 8.54599L10.6223 7.81364C10.6033 7.76344 10.6185 7.70674 10.66 7.67274L11.2658 7.17684C11.6934 6.82674 11.6934 6.17284 11.2658 5.82274L10.66 5.32683C10.6185 5.29284 10.6033 5.23614 10.6223 5.18594L10.8989 4.4536C11.0942 3.93662 10.7672 3.37033 10.2219 3.28094L9.44934 3.15433C9.39639 3.14565 9.35489 3.10414 9.34624 3.05119L9.21959 2.27866C9.13024 1.73331 8.56394 1.40635 8.04694 1.60162L7.31459 1.87824C7.26439 1.8972 7.20769 1.882 7.17369 1.84049L6.67779 1.23476Z" fill="#4DC4FF"/>
<path fill-rule="evenodd" clip-rule="evenodd" d="M9.01613 4.48483C9.16258 4.63128 9.16258 4.86872 9.01613 5.01516L5.51613 8.51515C5.44583 8.5855 5.35043 8.625 5.25098 8.625C5.15153 8.625 5.05613 8.5855 4.98581 8.51515L2.98581 6.51515C2.83937 6.3687 2.83937 6.1313 2.98581 5.98485C3.13226 5.8384 3.3697 5.8384 3.51614 5.98485L5.25098 7.71965L8.48583 4.48483C8.63228 4.33839 8.86968 4.33839 9.01613 4.48483Z" fill="#ECEFF1"/>
</g>
</g>
<defs>
<clipPath id="clip0_3454_1132">
<rect width="12" height="12" fill="white" transform="translate(0 0.5)"/>
</clipPath>
</defs>
</svg>
